# xmcd
# 
# Track frame offsets:
#     150
#     17809
#     38049
#     58044
#     86589
#     111989
#     124312
#     158751
# 
# Disc length: 2412
# 
# Revision: 0
# Processed by: cddbd v1.5.2PL0 Copyright (c) Steve Scherf et al.
# Submitted via: fre:ac v1.0.27
# 
DISCID=64096a08
DTITLE=COLLOSSEUM - Those Who Are About To Die Salute You
DYEAR=1969
DGENRE=Progressive Rock
TTITLE0=Walking In The Park
TTITLE1=Plenty Hard Luck
TTITLE2=Mandarin
TTITLE3=Debut
TTITLE4=Beware The Ides Of March
TTITLE5=The Road She Walked Before
TTITLE6=Backwater Blues (Leadbetter)
TTITLE7=Those About To Die
EXTD=
EXTT0=
EXTT1=
EXTT2=
EXTT3=
EXTT4=
EXTT5=
EXTT6=
EXTT7=
PLAYORDER=
